<?xml version="1.0" standalone="no"?>
<!DOCTYPE svg PUBLIC "-//W3C//DTD SVG 20010904//EN"
 "http://www.w3.org/TR/2001/REC-SVG-20010904/DTD/svg10.dtd">
<svg version="1.0" xmlns="http://www.w3.org/2000/svg"
 width="700.000000pt" height="700.000000pt" viewBox="0 0 700.000000 700.000000"
 preserveAspectRatio="xMidYMid meet">
<metadata>
Created by potrace 1.14, written by Peter Selinger 2001-2017
</metadata>
<g transform="translate(0.000000,700.000000) scale(0.100000,-0.100000)"
fill="#000000" stroke="none">
<path d="M4608 5775 c-2 -2 -21 -5 -44 -7 -56 -7 -171 -65 -195 -100 -26 -36
-35 -98 -19 -127 6 -13 9 -25 7 -28 -3 -2 -28 2 -56 11 -28 8 -51 13 -51 11 0
-3 -11 0 -24 5 -72 27 -364 30 -486 5 -14 -3 -41 -8 -60 -11 -42 -7 -169 -40
-228 -60 -51 -17 -57 -14 -65 23 -3 16 -15 39 -27 53 -12 14 -25 30 -28 35
-19 29 -101 86 -143 100 -154 51 -287 -13 -379 -184 -72 -131 -96 -291 -54
-347 l20 -28 -95 -74 c-152 -118 -330 -285 -448 -421 -46 -53 -189 -236 -201
-257 -7 -13 -22 -6 -88 39 -192 132 -352 175 -529 142 -94 -17 -205 -76 -280
-150 -122 -119 -114 -281 33 -660 81 -208 323 -679 514 -998 32 -54 58 -99 58
-101 0 -13 342 -558 482 -770 65 -98 117 -180 116 -182 -2 -2 -40 -5 -83 -8
-194 -13 -303 -35 -345 -69 -47 -38 -68 -125 -41 -174 16 -32 71 -70 107 -76
17 -3 48 1 69 9 38 13 69 17 216 29 l66 6 5 -46 c8 -69 69 -124 133 -120 11 1
30 2 42 3 12 1 38 18 57 37 29 29 36 44 42 92 l6 58 40 2 c75 5 130 67 130
148 0 66 -36 117 -100 144 -15 6 -44 37 -65 69 -20 31 -70 103 -110 159 -62
88 -128 188 -288 441 -63 99 -229 372 -229 377 0 3 -21 37 -46 76 -25 40 -48
79 -52 88 -3 9 -23 44 -44 79 -21 34 -38 64 -38 67 0 2 -13 26 -28 52 -78 133
-243 456 -314 618 -78 176 -138 364 -138 433 0 26 7 33 63 61 142 72 287 33
469 -125 97 -84 295 -325 363 -441 11 -18 23 -33 27 -33 4 0 8 -4 8 -9 0 -4
25 -48 55 -97 30 -49 58 -95 62 -103 4 -8 31 -58 61 -110 48 -85 252 -494 252
-506 0 -2 11 -28 24 -57 13 -29 43 -98 66 -153 65 -155 68 -160 109 -183 44
-25 60 -26 113 -12 47 13 88 64 92 115 10 96 -293 744 -537 1150 -7 11 -27 41
-44 68 -18 26 -33 49 -33 52 0 3 -17 29 -37 58 -20 28 -49 70 -64 92 -15 22
-57 76 -92 120 -74 92 -76 73 20 200 141 186 346 401 488 513 214 167 419 291
614 371 94 39 242 85 305 97 139 25 183 29 271 27 102 -2 239 -24 300 -48 164
-65 267 -144 369 -280 176 -235 276 -615 279 -1056 l1 -66 -115 -167 c-63 -93
-197 -281 -298 -420 -239 -325 -259 -353 -339 -469 -171 -249 -267 -411 -277
-470 -9 -46 27 -112 72 -135 75 -39 143 -15 193 66 16 26 41 67 56 92 103 171
225 348 442 642 81 109 152 206 157 215 6 10 16 23 22 31 11 12 277 395 415
597 63 93 86 126 227 324 57 80 107 148 112 149 5 2 9 8 9 14 0 6 11 23 24 39
l25 29 7 -46 c7 -52 0 -181 -15 -264 -14 -75 -22 -113 -25 -125 -1 -5 -6 -26
-10 -45 -5 -19 -22 -77 -38 -128 -17 -51 -31 -98 -32 -105 -2 -7 -6 -19 -9
-27 -3 -8 -21 -58 -40 -110 -39 -107 -95 -243 -139 -340 -52 -114 -169 -344
-184 -361 -8 -8 -14 -19 -14 -24 0 -22 -177 -266 -269 -370 -96 -109 -271
-271 -420 -390 -91 -72 -173 -140 -181 -150 -10 -12 -15 -40 -15 -79 0 -50 5
-67 26 -96 19 -26 29 -56 36 -111 12 -90 33 -126 86 -149 85 -38 175 11 195
108 l7 30 95 -69 c52 -38 108 -73 125 -78 87 -23 175 42 175 131 0 51 -20 88
-66 123 l-38 29 70 23 c38 12 97 28 130 34 111 20 169 96 138 184 -35 104
-132 124 -304 64 -30 -10 -58 -19 -63 -19 -5 0 22 31 60 68 182 182 324 361
440 551 54 88 191 356 255 501 108 241 245 651 272 815 3 17 10 55 17 85 18
92 20 307 3 381 -30 131 -93 220 -192 269 -93 47 -170 26 -248 -66 -42 -50
-268 -354 -283 -382 -13 -23 -18 -15 -24 43 -44 363 -180 714 -354 906 -25 27
-31 39 -20 39 30 0 84 58 95 101 11 43 9 143 -3 201 -20 95 -101 200 -179 232
-30 12 -111 27 -118 21z m27 -343 c3 -23 3 -46 0 -51 -3 -5 -31 6 -62 25 -31
19 -62 34 -67 34 -6 0 16 13 49 29 67 31 70 30 80 -37z m-1502 -44 l28 -31
-63 -34 c-34 -18 -65 -33 -70 -33 -10 0 29 91 49 113 21 23 24 22 56 -15z"/>
<path d="M3618 4755 c-2 -2 -46 -6 -98 -10 -52 -4 -102 -8 -110 -10 -9 -2 -43
-6 -75 -10 -87 -11 -95 -13 -121 -30 -60 -39 -79 -120 -45 -182 34 -60 66 -73
166 -68 47 2 89 6 94 9 28 18 566 28 701 14 120 -13 204 -27 285 -49 133 -36
171 -32 224 25 34 37 40 118 11 164 -23 37 -53 52 -162 81 -95 26 -110 29
-273 51 -75 11 -588 23 -597 15z"/>
</g>
</svg>
